<svg xmlns="http://www.w3.org/2000/svg" width="320.4" height="82.98944358005991" viewBox="-10.0 -28.0 320.4 82.98944358005991">
  <defs><marker id="arrow" viewBox="-10 -4 10 8" refX="0" refY="0" orient="auto" markerWidth="10" markerHeight="8"><g transform="translate(0.0 0.0) rotate(0.0) scale(1.0)">
<path d="M -10 -4 L 0 0 L -10 4 Z" fill="black" stroke="none" stroke-width="1"/>
</g></marker></defs>
  <g transform="translate(0.0 0.0) rotate(0.0) scale(1.0)">
<g transform="translate(0.0 0.0) rotate(0.0) scale(1.0)">
<rect x="0" y="0" width="30" height="30" stroke="none" fill="green"/>
</g>
<g transform="translate(145.2 28.0) rotate(0.0) scale(1.0)">
<text x="0" y="0" font-family="sans-serif" font-size="48" fill="navyblue" text-anchor="middle" dominant-baseline="bottom">tesserax</text>
</g>
<g transform="translate(280.4 10.0) rotate(0.0) scale(1.0)">
<circle cx="0" cy="0" r="20" stroke="none" fill="red"/>
</g>
</g>
  <g transform="translate(0.0 0.0) rotate(0.0) scale(1.0)">
<path d="M 15.0 38.59653113767395 L 19.2013250098647 39.977358665908646 Q 23.29375 41.32239459394232, 27.440624999999997 42.488795760762855 L 27.55070663322867 42.51975867752389 Q 31.5875 43.65519692758338, 35.734375 44.27837301833314 L 35.7790994740393 44.285094036664454 Q 39.881249999999994 44.9015491090829, 44.028124999999996 44.79627077168599 L 44.028124999999996 44.79627077168599 Q 48.175 44.69099243428908, 52.24766320443417 43.902912351303804 L 52.32187499999999 43.8885520089253 Q 56.46874999999999 43.086111583561525, 60.50982082316584 41.85719763049538 L 60.615624999999994 41.82502194368019 Q 64.76249999999999 40.56393230379886, 68.88547833149778 39.22678271476977 L 68.99202161198917 39.192228979031086 Q 73.05624999999999 37.87413296158857, 77.203125 36.8451736642955 L 77.30581931525391 36.81969224263228 Q 81.35 35.81621436700243, 85.49687499999999 35.40903751092287 L 85.5032263682105 35.40841387743024 Q 89.64375 35.00186065484331, 93.790625 35.33749319584326 L 93.790625 35.33749319584326 Q 97.9375 35.673125736843204, 101.9866970332262 36.62875372634286 L 102.084375 36.651806148400986 Q 106.23124999999999 37.63048655995877, 110.28824624302982 38.93247315652332 L 110.39057046527905 38.965311433389196 Q 114.52499999999999 40.29214821513273, 118.671875 41.579560797537944 L 118.77381288566157 41.61120778873601 Q 122.81875 42.86697337994316, 126.96562499999999 43.728304450662996 L 127.04849218415544 43.74551646705031 Q 131.11249999999998 44.58963552138283, 135.25937499999998 44.76886788315876 L 135.25937499999998 44.76886788315876 Q 139.40625 44.9481002449347, 143.52016557733484 44.396380091510395 L 143.553125 44.391959879819666 Q 147.7 43.83581951470464, 151.7377462219523 42.73924766642244 L 151.84687499999998 42.70961045316869 Q 155.99374999999998 41.58340139163275, 160.07641114653137 40.2429547949667 L 160.1879712806472 40.20632662605138 Q 164.2875 38.86034195513157, 168.434375 37.668185006771 L 168.5443546320156 37.63656770880915 Q 172.58125 36.476028058410435, 176.728125 35.80759389816978 L 176.78062312231134 35.7991317336962 Q 180.875 35.13915973792912, 185.021875 35.193129971609075 L 185.021875 35.193129971609075 Q 189.16875 35.24710020528903, 193.24797623987143 35.995029570732534 L 193.31562499999998 36.007433024539885 Q 197.46249999999998 36.76776584379074, 201.5015988745383 37.97621879833975 L 201.60937499999997 38.008464202893975 Q 205.75624999999997 39.24916256199722, 209.8714704509983 40.5911257968109 L 209.9802379781434 40.62659461903036 Q 214.04999999999998 41.95373397226905, 218.19687499999998 43.015661235237644 L 218.30229492802002 43.04265705633779 Q 222.34375 44.07758849820624, 226.490625 44.533516039133076 L 226.50569987406766 44.53517344386879 Q 230.6375 44.989443580059906, 234.78437499999998 44.703854064032754 L 234.78437499999998 44.703854064032754 Q 238.93124999999998 44.418264548005595, 242.9846354819051 43.497286930269695 L 243.07812499999997 43.476044994598226 Q 247.22499999999997 42.53382544119086, 251.27757272617643 41.24502590227922 L 251.3763046705184 41.213627160555994 Q 255.51874999999998 39.89624632834583, 259.665625 38.592876350483266 L 259.7642170255044 38.56188870651061 Q 263.8125 37.28950637262071, 267.959375 36.38896232619051 L 268.0475983548207 36.369803557975914 Q 272.10625 35.48841827976032, 276.25312499999995 35.25837280611073 L 280.4 35.02832733246113" fill="transparent" stroke="black" stroke-width="1.0" marker-end="url(#arrow)"/>
</g>
</svg>